
<global>
amp_veltrack=0
ampeg_release=0.35
</global>

<group>
group_label=PP
lpc_hicc1=42
lpc_locc1=0

<region>
hikey=a3
hivel=127
lokey=g#3
loop_end=277617
loop_mode=loop_continuous
loop_start=99794
loop_xfade=53346
lovel=0
lpc=joJ2Qe8NIsILWC5Crquzwck4R0CCage/hfeKQDlRfcDU/uc/rkEVP2D/dsCglI5Ad+aNv3itLcDpBbpAXXjSwBd+hEDOata+z45Ovw+pWz/04xzATwGAQHkyc8AisNs/
lpc_rms=-47.83
offset=9442
pitch_keycenter=a3
sample=Violin1Solo_trill_half_PP_A3.opus
</region>

<region>
hikey=a4
hivel=127
lokey=g#4
loop_end=268234
loop_mode=loop_continuous
loop_start=96421
loop_xfade=51543
lovel=0
lpc=6LRdQWL+I8KxpF5Ceoo4wrls3EFpzIHB+EMpQfo6lsDiFjw+HZ4AQAPjfcCBVKpAb0iHwE1Gqj8YjG1A8W3swI2k2kCTDWDAWiCXPx0DkT4dx37Am7vYQCnxqcACc+o/
lpc_rms=-43.27
pitch_keycenter=a4
sample=Violin1Solo_trill_half_PP_A4.opus
</region>

<region>
hikey=a5
hivel=127
lokey=g#5
loop_end=262819
loop_mode=loop_continuous
loop_start=94474
loop_xfade=50503
lovel=0
lpc=0ewfQTr7j8GJDodBA2gUwSHNqEDbJvS/r5dtPrXUOj7DSwdAeYLWv4Z9gz/MDXs/G65Bv1iy8D+E2V2/n6JUPukbCkBVgi3AS4Z4QOgcMsBVE9c/4Nwdvx/gGEBqZqC/
lpc_rms=-43.30
pitch_keycenter=a5
sample=Violin1Solo_trill_half_PP_A5.opus
</region>

<region>
end=290822
hikey=a6
hivel=127
lokey=g#6
loop_end=274467
loop_mode=loop_continuous
loop_start=108008
loop_xfade=57738
lovel=0
lpc=GcPgQJB7ysAUzFpAvx3HvrUFwj/m316/1JVkP05UcL86nJA/pSbnPiWFvz4Gd7E9v0cNPygYicC9q18/CFLxP4vRD8BFJls/CI2Bv7sEkD8X81q+Sp2+PjwweL9+HKY9
lpc_rms=-44.17
pitch_keycenter=a6
sample=Violin1Solo_trill_half_PP_A6.opus
</region>

<region>
hikey=b3
hivel=127
lokey=a#3
loop_end=297075
loop_mode=loop_continuous
loop_start=106789
loop_xfade=57085
lovel=0
lpc=ft3VQUczk8KYy6VC8ek0wuqEzUAFOtk/nwSwQB400cCQWAxAYHsyQKS8/cBOCAdBFTg9wGkrZMDoTQtBEvAYwQYRvUB7qHi/t3CYP6wXLcAlSvK98v9OQNTLOMBf5FY/
lpc_rms=-42.17
pitch_keycenter=b3
sample=Violin1Solo_trill_half_PP_B3.opus
</region>

<region>
hikey=b4
hivel=127
lokey=a#4
loop_end=267812
loop_mode=loop_continuous
loop_start=96269
loop_xfade=51462
lovel=0
lpc=a3RzQVvVGMLbOTBCHTf0wQ+BhEF1Rk3B2Os2QYLlAsGCKLRAjvkdv0MGisDXU4VAIXELwBZ5478o6dBAELfdwKtekUDoezvACr1lQL5Z07+aH7y/R8nmP26Kkb/NtI0/
lpc_rms=-42.47
pitch_keycenter=b4
sample=Violin1Solo_trill_half_PP_B4.opus
</region>

<region>
end=288907
hikey=b5
hivel=127
lokey=a#5
loop_end=276837
loop_mode=loop_continuous
loop_start=111189
loop_xfade=59438
lovel=0
lpc=NATpQIOfMsFznylB0Tq4wN0qHUBDzvy/3OUcQIFWwb+A6LY+58W9Pzi0lL8tBWm+C3XTPzVD0r+8xdQ/9euNv9btMT89Q5s9BK+6PnpTn75Ub90+AEEAvgaxtb58qK+/
lpc_rms=-45.62
pitch_keycenter=b5
sample=Violin1Solo_trill_half_PP_B5.opus
</region>

<region>
end=297910
hikey=E7
hivel=127
lokey=a#6
loop_end=290068
loop_mode=loop_continuous
loop_start=181951
loop_xfade=97265
lovel=0
lpc=gfAhQfFnZsF+xxxBIX1hwJivJz7cHya/UJHGP44uwL8sZhFAafUpQK6obcAbIGc/rnX1wM8xJkFG0KXAJ4WGP2Evvz/IcpY9mc0KvzbqmD/9C9K/YhIUwB6+XEDTagC/
lpc_rms=-48.54
pitch_keycenter=b6
sample=Violin1Solo_trill_half_PP_B6.opus
</region>

<region>
hikey=c#4
hivel=127
lokey=c4
loop_end=272462
loop_mode=loop_continuous
loop_start=94139
loop_xfade=50324
lovel=0
lpc=zPbeQbc3mcIL5q5CqnpMwvkvP0GfV3vA23scQc2C6sA33CNAswy2vZQTpMDQxjJBjTcIwdFJtj/YUJ5Aag4LwR4r8UCOzDrAmzUjv/UsPEC0NqHAb16rQCEc1MBE7oJA
lpc_rms=-40.66
pitch_keycenter=c#4
sample=Violin1Solo_trill_half_PP_C#4.opus
</region>

<region>
hikey=c#5
hivel=127
lokey=c5
loop_end=298400
loop_mode=loop_continuous
loop_start=107265
loop_xfade=57340
lovel=0
lpc=txINQUCOrcGYw8dBqyyRwdcMLkEWTwfBlVjeQBhzW8AtKEo+2BjwPxfJGsDnDJ0/NVCpP7+8McA5qW9AfxFSwP0WBUBJ9vm/burdP+Srf70XaSbAGoiTQPHJgcB0IfU/
lpc_rms=-45.13
offset=9792
pitch_keycenter=c#5
sample=Violin1Solo_trill_half_PP_C#5.opus
</region>

<region>
end=287349
hikey=c#6
hivel=127
lokey=c6
loop_end=272611
loop_mode=loop_continuous
loop_start=116532
loop_xfade=62294
lovel=0
lpc=E+EjQZqnZcEQZiVBuSilwBNVTEAa5jnAhVugQHwzqMCuxoFAYBmEv4zQFL512AE/oIG3P3y/+7/kzbs/+ELBPp/fgr7squA+h3g7P09cFMCPSXg+O1Q+wO1fiEDSjrO/
lpc_rms=-42.82
pitch_keycenter=c#6
sample=Violin1Solo_trill_half_PP_C#6.opus
</region>

<region>
hikey=d#4
hivel=127
lokey=d4
loop_end=268971
loop_mode=loop_continuous
loop_start=96686
loop_xfade=51685
lovel=0
lpc=ZgcuQQZq6sGE3AhCfHO1wdCwKEHusrrAe2ZnQI29er+mr8A9hbXiP64WncDH8b9A/d2LwC22kD6Pd5BAjo+twImwCkAruhM/b6wWv6g8AT+tCOm/QV3/PzJpg7/Z/8I+
lpc_rms=-49.48
pitch_keycenter=d#4
sample=Violin1Solo_trill_half_PP_D#4.opus
</region>

<region>
hikey=d#5
hivel=127
lokey=d5
loop_end=266843
loop_mode=loop_continuous
loop_start=95921
loop_xfade=51276
lovel=0
lpc=sHoIQRl4n8F9+qpBX5FgwSieGkEnlB/BUA8nQSMi/cCjx6hA2SE8wNMlqT9s+wA+Wml+vusuib8wbWdAarZPwE18Zj77NoY/QjmjvoRmFr/6kfs+uY5yvHxP0j2Rvgy+
lpc_rms=-45.14
pitch_keycenter=d#5
sample=Violin1Solo_trill_half_PP_D#5.opus
</region>

<region>
hikey=d#6
hivel=127
lokey=d6
loop_end=275039
loop_mode=loop_continuous
loop_start=113108
loop_xfade=60464
lovel=0
lpc=ueE2QSMyh8E09l1BwJOXwCfawT964D/Alv86QGxNHsBCszhAsNmpv9SmYj+ECaA+ryIvv0h0wT9kWK4+OWNRv8ejlz8cQQI+hTB5wCFJW78Q0rlAmArSwHq62T+Vo/E/
lpc_rms=-43.64
pitch_keycenter=d#6
sample=Violin1Solo_trill_half_PP_D#6.opus
</region>

<region>
end=300926
hikey=f4
hivel=127
lokey=e4
loop_end=300553
loop_mode=loop_continuous
loop_start=108039
loop_xfade=57754
lovel=0
lpc=ajthQa1KD8Kr+SZCji/jwbH6T0Foa+jAg8KpQL9ZLMBEirs9Z+EIQHKulMD6qK5ALkOKwM3z1z9LIAtA0m6ywIxetEBZGYLA6osmQMq+DT7eskTAAaGqQE2clcAwtgZA
lpc_rms=-46.91
offset=8909
pitch_keycenter=f4
sample=Violin1Solo_trill_half_PP_F4.opus
</region>

<region>
end=298230
hikey=f5
hivel=127
lokey=e5
loop_end=286240
loop_mode=loop_continuous
loop_start=119706
loop_xfade=63990
lovel=0
lpc=N9maQLpEHMEzdxxBJrPEwOLui0BHIJLAgtObQLzMjcB/bHNAiUcQwHIWTj9Ppam+Wi3YP93ANMByOE1Aqj8XwPCzwT+t/CC/OO+6PvHJY7659fU+ff9FPi/8Er9qax8/
lpc_rms=-49.42
offset=4293
pitch_keycenter=f5
sample=Violin1Solo_trill_half_PP_F5.opus
</region>

<region>
end=292314
hikey=f6
hivel=127
lokey=e6
loop_end=280194
loop_mode=loop_continuous
loop_start=114096
loop_xfade=60992
lovel=0
lpc=/9CtQMtkuMATSJxAbDUUwDx7lj+CVmW/oZeHP1H7z75uxD8/1vrBPpxk8r5Iwz8/2twXPl8yAL7lV8A+elU3PImL7r/o/6+/nURXQLt5asDECyxApM20v3Ohmz85qji/
lpc_rms=-46.01
pitch_keycenter=f6
sample=Violin1Solo_trill_half_PP_F6.opus
</region>

<region>
hivel=127
key=g3
loop_end=267001
loop_mode=loop_continuous
loop_start=95978
loop_xfade=51306
lovel=0
lpc=E2afQVUWTsLvdl1CvaDjwb4wc0BqLDO9QqtKQIti1b9p2xk/5E8uPo47nMDngOBA6XpCwHIEWsBFow9BKsknweJ63EAPyZ2/H40dvt9rzb6rSSLAWhW9QO31o8Bb+Q1A
lpc_rms=-44.47
sample=Violin1Solo_trill_half_PP_G3.opus
</region>

<region>
hikey=g4
hivel=127
lokey=f#4
loop_end=258596
loop_mode=loop_continuous
loop_start=92956
loop_xfade=49692
lovel=0
lpc=Hn6rQVvKdsKV35pCABhcwnopz0FqDWDBQLQsQcWRnMBrHoI/kEasvs0GQ8A0mAdBRIYmwf1vukDzKVJAQSwlwWoIFkEq+j3AEn9rv6VCAUBCC5PAgqQBQao2B8Gjl4NA
lpc_rms=-41.24
pitch_keycenter=g4
sample=Violin1Solo_trill_half_PP_G4.opus
</region>

<region>
hikey=g5
hivel=127
lokey=f#5
loop_end=260540
loop_mode=loop_continuous
loop_start=93655
loop_xfade=50065
lovel=0
lpc=lmbDQA1rO8GYjkNBntP4wLvGlUDUvxrAEfXNPyloEMCaCJBANpA2wAE/BD6hcIw/weTZvelxEj+Ncw+/nSGqP5IxkL8yRuY/3oWMvyLtyj6e1wi+wnAaQFu3RcAzJgVA
lpc_rms=-46.50
pitch_keycenter=g5
sample=Violin1Solo_trill_half_PP_G5.opus
</region>

<region>
end=292335
hikey=g6
hivel=127
lokey=f#6
loop_end=277637
loop_mode=loop_continuous
loop_start=117552
loop_xfade=62839
lovel=0
lpc=U4p4QLtLcMD123BAUSQSwBiO6D/ZgpW/waPrPwB5IMCUPhRAlYmOv/ZJPz+g3Dg94OnNPsF+7r2Wmzy/oXeVv15RVD9JgxS/HsO4vZPfAT+XIGq/lxlYP4ziNz6mqqy9
lpc_rms=-48.40
pitch_keycenter=g6
sample=Violin1Solo_trill_half_PP_G6.opus
</region>
</group>

<group>
group_label=MF
lpc_hicc1=84
lpc_locc1=43

<region>
hikey=a3
hivel=127
lokey=g#3
loop_end=273293
loop_mode=loop_continuous
loop_start=98240
loop_xfade=52515
lovel=0
lpc=qy9iQfk8DMKzfwVC3V48wTzOo8ByT65AfoGbP2yoU8BmSNY/BZFAP2PXRsDyPURACa63vbWxQMAZGqJA/KiOwNQS/z9nlgI+H/brvpEyrD5ORle/eiKXPxln7b8ZvKM/
lpc_rms=-35.06
pitch_keycenter=a3
sample=Violin1Solo_trill_half_MF_A3.opus
</region>

<region>
hikey=a4
hivel=127
lokey=g#4
loop_end=262482
loop_mode=loop_continuous
loop_start=94353
loop_xfade=50438
lovel=0
lpc=l49xQW5OH8LdKDZCUtHowZYLPkGTcwbBX5sRQbpDt8D1BMc/rK5WQNOl9MD0FNRAqFBbvjy+ocB3HgVBycD7wDk6mEBNr96/txEWP2Jtjb/67ke/BPEnQLUtPcDh1uk/
lpc_rms=-31.82
pitch_keycenter=a4
sample=Violin1Solo_trill_half_MF_A4.opus
</region>

<region>
hikey=a5
hivel=127
lokey=g#5
loop_end=269832
loop_mode=loop_continuous
loop_start=96995
loop_xfade=51851
lovel=0
lpc=ARUZQd9oU8ENsTVBJk8uwJBMLj6Gzsc/2zGdPpWamj7TvuY/C29DvsmPWj8lM/8/PVfOviF3Sj/08QRA2B2YvlPLyD+zKPi+1qz1P/Qig72FKcc/lIKav3BILED1YSA/
lpc_rms=-31.99
pitch_keycenter=a5
sample=Violin1Solo_trill_half_MF_A5.opus
</region>

<region>
hikey=a6
hivel=127
lokey=g#6
loop_end=278507
loop_mode=loop_continuous
loop_start=109770
loop_xfade=58680
lovel=0
lpc=9CgPQSGMh8AbtyJALNKLP5zqgUAcq3W/RhU3QPU/xT6+f6I/0F1OQK+T7j8TLNi+ttzlP9Z6q8BU+dK/+ZMvQP/7FMCIGtq/4auwvxfwSz8s1hzAuyR9PxyAJ8A8Gu6/
lpc_rms=-34.17
pitch_keycenter=a6
sample=Violin1Solo_trill_half_MF_A6.opus
</region>

<region>
hikey=b3
hivel=127
lokey=a#3
loop_end=263176
loop_mode=loop_continuous
loop_start=94603
loop_xfade=50571
lovel=0
lpc=avb6Qcqup8JZaLBCne4iws5fSsDTPSZB9bAUP46Tm8AoyRtA6s6JP8lbisCGrZBALwhGvzl1kMAhki9Bv35FwT2i1UAp54k/RFxowBdGPUC1le6/BckTwLMchEDjUdO/
lpc_rms=-27.98
pitch_keycenter=b3
sample=Violin1Solo_trill_half_MF_B3.opus
</region>

<region>
hikey=b4
hivel=127
lokey=a#4
loop_end=261093
loop_mode=loop_continuous
loop_start=93854
loop_xfade=50171
lovel=0
lpc=GcxVQbvq+sFQzgRCBJ6fwTVDFkHMJxTBcQMYQc+4usAxMmdAXuDDv0tW5r/B72xATOVfwHBGXr7ZxndAx1g8wPTdlj8FXx2/Jk+UP1k+s7+YPCRA+qlQwNnvzj9okwI/
lpc_rms=-29.81
pitch_keycenter=b4
sample=Violin1Solo_trill_half_MF_B4.opus
</region>

<region>
hikey=b5
hivel=127
lokey=a#5
loop_end=261092
loop_mode=loop_continuous
loop_start=93854
loop_xfade=50171
lovel=0
lpc=WfTSQOovB8FYEQZBefs1wPUutT/VNYq+KkYdQLsaEcAfQlZAfERWvRMWb72rKts/Cmw3PgGe0z46b4g/JumRvtAU4T9tyrg+6HUFPk+4oz+J7CI/hXbcPsWvkL1DO7S+
lpc_rms=-33.48
pitch_keycenter=b5
sample=Violin1Solo_trill_half_MF_B5.opus
</region>

<region>
hikey=E7
hivel=127
lokey=a#6
loop_end=284492
loop_mode=loop_continuous
loop_start=118890
loop_xfade=63555
lovel=0
lpc=MGlUQW3aFMEzY5JAOdHcPw6PU7/wnQZAsLrAP87QYD+zYfs/PEmDQGf01j8exX7AldEWwfO5CUH8MX2+jyk5v2+mR0B68XM+bwnbPh0idD/oLxo/J5QHwAaDc75svMlA
lpc_rms=-33.20
pitch_keycenter=B6
sample=Violin1Solo_trill_half_MF_B6.opus
</region>

<region>
hikey=c#4
hivel=127
lokey=c4
loop_end=262912
loop_mode=loop_continuous
loop_start=94508
loop_xfade=50521
lovel=0
lpc=jcXWQXBZm8IEysNChNuIwliIvEGXa+q/DxEIvyVIxb8B5HFAv0UjwOnnT8BI0xpBqyHAwIS79b+DrhJBX9xywc+0Y0FCVszADr9SwLKUwkDPXSrAfl0xPOodeL/Gu68/
lpc_rms=-28.82
pitch_keycenter=c#4
sample=Violin1Solo_trill_half_MF_C#4.opus
</region>

<region>
hikey=c#5
hivel=127
lokey=c5
loop_end=260930
loop_mode=loop_continuous
loop_start=93796
loop_xfade=50140
lovel=0
lpc=cuDuQJCejME6q5pBFSxEwfJkkUCfwyTApD5rQLA7SsCGHW4/na/SP4ZIEsBreq4/kFe2PkR1DcC4poNA+XNQwBlKwj8QQq+/QHDMP9lr5r7/qgjAtGNxQFaNW8BhK/A/
lpc_rms=-34.01
pitch_keycenter=c#5
sample=Violin1Solo_trill_half_MF_C#5.opus
</region>

<region>
hikey=c#6
hivel=127
lokey=c6
loop_end=258859
loop_mode=loop_continuous
loop_start=93051
loop_xfade=49742
lovel=0
lpc=XzcfQbwHRMHzFghBQIc1vx+rCT856dG/Jd+3QA3JgcBTLjZAHQnCPwozkb+pdjBAwMgVPaSLk71bvrw/ORPOPyE5Tb8FWZo/FZhGPzK5jD/zXCPA8AA+v5H5JEBJaFq/
lpc_rms=-29.28
pitch_keycenter=c#6
sample=Violin1Solo_trill_half_MF_C#6.opus
</region>

<region>
hikey=d#4
hivel=127
lokey=d4
loop_end=264807
loop_mode=loop_continuous
loop_start=95189
loop_xfade=50885
lovel=0
lpc=fX8oQYej3cFEze9B+sdxwfyc3D/3MYi+sZFUQJKpL8DcpAw/gaPuP/Ogh8DswptAmo02wPtNl7+zdZFAUAyJwPhnpz+uzIM/4L2Pv1MKkD65twO+qkHPPRFMFr58iGc+
lpc_rms=-36.12
pitch_keycenter=d#4
sample=Violin1Solo_trill_half_MF_D#4.opus
</region>

<region>
hikey=d#5
hivel=127
lokey=d5
loop_end=267091
loop_mode=loop_continuous
loop_start=96010
loop_xfade=51324
lovel=0
lpc=ClXUQAN3bcHxS3NBkgUMwVS7fUD7t2rATV+TQOO+V8DE9fk/9S5jvz94uj6gdQk/01iqvqE9m784Q2lAzxRtwGJ31T/TyZ6+EHKJPaDG1buByoq+RyX/PuODgL4YNWs+
lpc_rms=-35.43
pitch_keycenter=d#5
sample=Violin1Solo_trill_half_MF_D#5.opus
</region>

<region>
hikey=d#6
hivel=127
lokey=d6
loop_end=271262
loop_mode=loop_continuous
loop_start=97510
loop_xfade=52125
lovel=0
lpc=crEpQdOvNsH9CCJBBkxBv8kzND8ZJps/y6SYPxCcFD8nRZQ/jaCfP1Yvfz8jwM4/iTKUvxDtikDGicK/U8ojQK1quD5jjNE/1VMPwJJVQ8CYMMNANACuwGFdEj+Dvwg/
lpc_rms=-31.15
pitch_keycenter=d#6
sample=Violin1Solo_trill_half_MF_D#6.opus
</region>

<region>
hikey=f4
hivel=127
lokey=e4
loop_end=263706
loop_mode=loop_continuous
loop_start=94793
loop_xfade=50673
lovel=0
lpc=DLRmQTtTEMIdGxlC0TudwQqhLUACDhK/9lx+QNaSd8DSTzM/DchgQMoO7sAltNxAYFnLv5OrhMBwXs5AhIGUwMLiQj88PIU/vtbtPCpVPr/QzHo8eaJiP+IIZL/82FU/
lpc_rms=-33.37
pitch_keycenter=f4
sample=Violin1Solo_trill_half_MF_F4.opus
</region>

<region>
hikey=f5
hivel=127
lokey=e5
loop_end=260754
loop_mode=loop_continuous
loop_start=93732
loop_xfade=50106
lovel=0
lpc=auW6QOvZMMGE8xdBo0uLwLiGQkCrrYjArlmZQOujWsAAtwhAXod0v8Q6fT9J4sm/y9JdQGaPjsAgDZRABKlVwNWbDkBMUe+/uPceQEJSJsDIkhJAoYfgvd6qj7+61pQ/
lpc_rms=-35.91
pitch_keycenter=f5
sample=Violin1Solo_trill_half_MF_F5.opus
</region>

<region>
hikey=f6
hivel=127
lokey=e6
loop_end=260346
loop_mode=loop_continuous
loop_start=93586
loop_xfade=50028
lovel=0
lpc=XlPVQMlArcDWwYdAc2azPBBHST8Wol4+W1ahP0embz9+VpM/W5npP06KGD8HVjW+ZMQwQJ3OGb5CS/Q/n7VQP3kOib+xj6u/v+VAQAnfDcCpl6g/LVLavr4yAUDbQGm/
lpc_rms=-34.79
pitch_keycenter=f6
sample=Violin1Solo_trill_half_MF_F6.opus
</region>

<region>
hivel=127
key=g3
loop_end=260729
loop_mode=loop_continuous
loop_start=93723
loop_xfade=50101
lovel=0
lpc=coK0QYnwYcKfy19CsJ+zwRKNe8CQyYBAb+WaQJz6tsBni+0/fbzpP/daysApmsBAxgQgP4v9xsDvIgZBS5XkwH5zSkByZpc+63pEvs9nuT2cecS/GhINQAxZHMCRlOo/
lpc_rms=-32.58
sample=Violin1Solo_trill_half_MF_G3.opus
</region>

<region>
hikey=g4
hivel=127
lokey=f#4
loop_end=269495
loop_mode=loop_continuous
loop_start=96875
loop_xfade=51786
lovel=0
lpc=b4WVQa6ATMIOI2xCIp4QwjMZREEXRsjAeuHuQE1lSMC70RXANC7GQJBIFcFoIgNBsqNSwClDL8BYAxtB3ZRKwR9iDkE94GLAtIVsPxmL2T1OEN+/oEhIQDWnTsDWnPQ/
lpc_rms=-29.38
pitch_keycenter=g4
sample=Violin1Solo_trill_half_MF_G4.opus
</region>

<region>
hikey=g5
hivel=127
lokey=f#5
loop_end=266211
loop_mode=loop_continuous
loop_start=95694
loop_xfade=51155
lovel=0
lpc=EkPFQAy0KMF1hCNBzZyEwBhaqj+Tkq2/OclIQJz2YcDAdlNAmMoHPJmX2L+yshBAu5psPqpci78G3eg/W38xvxK6Gj+vBTQ/Wp6Rv4gR/j/+Kom/wjcqQBVsMMAg7wpA
lpc_rms=-33.78
pitch_keycenter=g5
sample=Violin1Solo_trill_half_MF_G5.opus
</region>

<region>
hikey=g6
hivel=127
lokey=f#6
loop_end=283301
loop_mode=loop_continuous
loop_start=113767
loop_xfade=60816
lovel=0
lpc=K2ybQHM9FcAii3VAGmpNv/btkj9Sidu+5IEIQM3/yb8vTQNAhf0WP8t4sr0XAHg/IbzdPd/fCj8wOwS/xEUmwFRZ7z79XcW/D3r/vK4qRL5VY3k+P7Omv43WsT+FQr+/
lpc_rms=-38.86
pitch_keycenter=g6
sample=Violin1Solo_trill_half_MF_G6.opus
</region>
</group>

<group>
group_label=FF
lpc_hicc1=127
lpc_locc1=85

<region>
hikey=a3
hivel=127
lokey=g#3
loop_end=269767
loop_mode=loop_continuous
loop_start=96972
loop_xfade=51838
lovel=0
lpc=1xcfQffg3sH0nRBCoZLcwSoLSEEN24PACC0wQCkwKMAG0ANAU6u8vi9QIcA2FHVA92mhv/5K3r9etQdAowkNwER8VUB+m1XA6XBbP7cnA0DDH7a/qRk6v4OhlD+PZLe+
lpc_rms=-25.63
pitch_keycenter=a3
sample=Violin1Solo_trill_half_FF_A3.opus
</region>

<region>
hikey=a4
hivel=127
lokey=g#4
loop_end=264920
loop_mode=loop_continuous
loop_start=95230
loop_xfade=50907
lovel=0
lpc=ui70QBXsmsEKVbdBQfWEwTkaC0Huhr3A9i+1QMjjeMA7t8w/WaNSPjeT278QpwhAKJKev0sBCjsLdL8/j47rvwYaoj/0mBy/gBAjP7WKWr5PqpS/v/8LQOvaCcBPbms/
lpc_rms=-25.45
pitch_keycenter=a4
sample=Violin1Solo_trill_half_FF_A4.opus
</region>

<region>
hikey=a5
hivel=127
lokey=g#5
loop_end=257858
loop_mode=loop_continuous
loop_start=92691
loop_xfade=49550
lovel=0
lpc=0R3ZQFkUA8Gw9/JAPkoKwC5FTT8/EcU/bcwvP+ltE7/eCfY/WiYQP7p6qz4+VJo/ytzoPhzUhT+dRhY/bYQ9PzhdSD/NcoM/dkEOP5H3Gj+ZLA0/q7aUPwazW77mjgBA
lpc_rms=-22.02
pitch_keycenter=a5
sample=Violin1Solo_trill_half_FF_A5.opus
</region>

<region>
hikey=a6
hivel=127
lokey=g#6
loop_end=267378
loop_mode=loop_continuous
loop_start=96113
loop_xfade=51379
lovel=0
lpc=s2HeQBGm2r+68zRA9A/jP+h2XkDRlo0+Em6CQGw5nj8oKXQ/PUaLQP+IL0BFK9M/OpbSPlm5P8D9FSC+HR6JP28Hvr8WVQzAw9csP0F5Z7/51Ne/2zgZP1hD979agBbA
lpc_rms=-24.54
pitch_keycenter=a6
sample=Violin1Solo_trill_half_FF_A6.opus
</region>

<region>
hikey=b3
hivel=127
lokey=a#3
loop_end=266960
loop_mode=loop_continuous
loop_start=95963
loop_xfade=51299
lovel=0
lpc=D/SQQSemP8KS315CMpEWwrxvbEGrFdDAYCIDQZn+6sCtjmBAtQLFPZ/KRcDeUpFA7PeOwJgRpD8Bn6BATpINwdRFDEGWOLnAmcdpQFQm2L/wGR4+rLXbvgdPwz7tLq69
lpc_rms=-19.53
pitch_keycenter=b3
sample=Violin1Solo_trill_half_FF_B3.opus
</region>

<region>
hikey=b4
hivel=127
lokey=a#4
loop_end=266931
loop_mode=loop_continuous
loop_start=95953
loop_xfade=51293
lovel=0
lpc=9PwHQYWDmsFYUaFBLmdEwfMFx0DzaqPAP1hrQIdUB8CaXBJA8Abov+EiJLzi7YQ/qcGrv9Qk2T79EPg/TWovwDiIwT88O+A+9z+UvwOjuD+AOJq/IXs4P3uWu760eQE/
lpc_rms=-23.21
pitch_keycenter=b4
sample=Violin1Solo_trill_half_FF_B4.opus
</region>

<region>
hikey=b5
hivel=127
lokey=a#5
loop_end=259416
loop_mode=loop_continuous
loop_start=93251
loop_xfade=49849
lovel=0
lpc=vS27QCMS18D2ofpAdA1NwD5ZOUAVfMw+y4T4Pqxuij9GmnI/vIT8P68guL4gj+w/bnUUPgMRzj+fEoU/sb+XPRCAzj+7Big/w8SbPymrej91mDA/3KhqP9ROCz/GsiC+
lpc_rms=-23.38
pitch_keycenter=b5
sample=Violin1Solo_trill_half_FF_B5.opus
</region>

<region>
end=289719
hikey=E7
hivel=127
lokey=a#6
loop_end=282239
loop_mode=loop_continuous
loop_start=113547
loop_xfade=60699
lovel=0
lpc=9Z5ZQbaqscAKWIxA/xI2P84o5j8RbUJAZfOLP0pdRUAyeAxAnQhLQPHLyEB11RXBRv3vwJqP30CCj8u/fPZLQMShej4PYNE+zjHmP9RJMr8IlOk/6gkHwFKUCr+kpQtB
lpc_rms=-26.28
pitch_keycenter=B6
sample=Violin1Solo_trill_half_FF_B6.opus
</region>

<region>
hikey=c#4
hivel=127
lokey=c4
loop_end=266456
loop_mode=loop_continuous
loop_start=95782
loop_xfade=51202
lovel=0
lpc=jm1lQW3TGcLsKzhC8q4DwrnYZEFXWL7A7ie4QDvFj8CbQCtAOJnpvXFITsCIwW5AtVALwJF9lL8bsJlAF2GfwCwNfkCekSzAfyEUQKmCdb+lHw/AXkdIQBXJJMDPVqI/
lpc_rms=-20.28
pitch_keycenter=c#4
sample=Violin1Solo_trill_half_FF_C#4.opus
</region>

<region>
hikey=c#5
hivel=127
lokey=c5
loop_end=269883
loop_mode=loop_continuous
loop_start=97014
loop_xfade=51860
lovel=0
lpc=kBLGQFh+UsEUmVRBbKoIwTlsokDhiZ7AYeKMQDfdMcBcp6o/U/0XPz92ub9zVNw/jj6ivyx1Vz5UGus/5ggbwLhN2T+8B5S/SVkkP3YBRr5GjcK+67V3P8AGsb8AhaE/
lpc_rms=-24.42
pitch_keycenter=c#5
sample=Violin1Solo_trill_half_FF_C#5.opus
</region>

<region>
hikey=c#6
hivel=127
lokey=c6
loop_end=273371
loop_mode=loop_continuous
loop_start=98268
loop_xfade=52530
lovel=0
lpc=yx33QK40F8FieRxBMOyuwAOhlUAGBki/uPGaP3K0jj8RfjO+DH0iQEuKO7+j3AdAgPysPgDoXT/d6o4/GpvKPoZ/yT8vRQg+JBBtP8umiT/AU8a/iIpFvltDVz9yN5a9
lpc_rms=-21.00
pitch_keycenter=c#6
sample=Violin1Solo_trill_half_FF_C#6.opus
</region>

<region>
hikey=d#4
hivel=127
lokey=d4
loop_end=263355
loop_mode=loop_continuous
loop_start=94667
loop_xfade=50606
lovel=0
lpc=ZoXLQL9aa8EpUnZBDwITwbpHhUBAQUnAnFQ0QKsNfL+tqz6/89nKP9jY97/8pABA4ziPvx2F4D3O4aU/cg8WwBtL+D8BHhi/6YUBv5GzkT/pbB6/ZzXkPdLkJD7z5jE9
lpc_rms=-27.06
pitch_keycenter=d#4
sample=Violin1Solo_trill_half_FF_D#4.opus
</region>

<region>
hikey=d#5
hivel=127
lokey=d5
loop_end=266344
loop_mode=loop_continuous
loop_start=95742
loop_xfade=51180
lovel=0
lpc=hm6eQKNSGsHe9w5B0lKewAGCd0CNHZ7A3yukQBY/YMCqm/U/+rJ2v51PtT7V+AK+tis6Py5/OL+o+1Y/wMvjvjfLvr5qQJc//vxQv1V9mj40hRA+Y8eGPnseqr5Q7gY/
lpc_rms=-24.71
pitch_keycenter=d#5
sample=Violin1Solo_trill_half_FF_D#5.opus
</region>

<region>
hikey=d#6
hivel=127
lokey=d6
loop_end=266965
loop_mode=loop_continuous
loop_start=95965
loop_xfade=51300
lovel=0
lpc=cnzZQBQzosCkU79AFalev/pulkBnCKQ+NIWAQDk3lT9EqgtAWupBQG5f5D/MAtY/Sn1PQIHm1D/8NxRAJSMhQHEj/j8paRNAzWAePzrX874efQZAb+BIP8sX1719YoO+
lpc_rms=-20.48
pitch_keycenter=d#6
sample=Violin1Solo_trill_half_FF_D#6.opus
</region>

<region>
hikey=f4
hivel=127
lokey=e4
loop_end=276960
loop_mode=loop_continuous
loop_start=99558
loop_xfade=53220
lovel=0
lpc=u0gfQTMAwsGIy9tB9NaUwb/fDkHVzb3AHVaxQFrlYMBgBmA+up8HQEOzRcDvqvM/egnrvgqOXL9bUAdACqs+wOSzQUDL9yPA0GkRQDHYSL+mMl6/eTnsPy5D6r/hno4/
lpc_rms=-23.88
pitch_keycenter=f4
sample=Violin1Solo_trill_half_FF_F4.opus
</region>

<region>
hikey=f5
hivel=127
lokey=e5
loop_end=262389
loop_mode=loop_continuous
loop_start=94320
loop_xfade=50420
lovel=0
lpc=pU2AQHN31MDdpbRAIk4cwL9NAECm+1vAOVqCQOqySsDreRBAP02Tv483iT+2E22/bFbWPxLEsL/l6nY/2gj9vY9U377E6G4/HDbYvtzbqr4aqTI/8tUEPxBTVr/2Yn0/
lpc_rms=-26.43
pitch_keycenter=f5
sample=Violin1Solo_trill_half_FF_F5.opus
</region>

<region>
hikey=f6
hivel=127
lokey=e6
loop_end=262527
loop_mode=loop_continuous
loop_start=94370
loop_xfade=50447
lovel=0
lpc=zS6QQFMNNMB+uVZA3ziFvkuGIUAhglg98h0YQPXPVD4iv9g/mSqeP2HDlD+wIUo/XTEBQB+1iz5wWQBA4oNZP2MaNb8X5Rw+fdWDPwP0/77fP90+2oUXvxWduD49Zco7
lpc_rms=-24.33
pitch_keycenter=f6
sample=Violin1Solo_trill_half_FF_F6.opus
</region>

<region>
hivel=127
key=g3
loop_end=261986
loop_mode=loop_continuous
loop_start=94175
loop_xfade=50343
lovel=0
lpc=YTlfQUV3EcIRiihCTy/awR05BkExuya/bTwdQAiqkMDYM3pAvzGIvyBdQcCY25FAdKcewL0Yz78p3YNAPz1kwL5RNUAonCjAypMnQI9vYr/9Kam/7ckZQFHsMcD4odc/
lpc_rms=-22.46
sample=Violin1Solo_trill_half_FF_G3.opus
</region>

<region>
hikey=g4
hivel=127
lokey=f#4
loop_end=267662
loop_mode=loop_continuous
loop_start=96215
loop_xfade=51434
lovel=0
lpc=NPM4QUrv8MEorQtCVOu8wZH1M0GEoOXAqKbBQHnZYcDigNk/dvkkP8rsbMDGWmxA2CfUvrKmSMADfJ5ABxiVwIL5XUAkVA/AmiXjPzpsur87fwg/URErP+gc9786TM0/
lpc_rms=-20.98
pitch_keycenter=g4
sample=Violin1Solo_trill_half_FF_G4.opus
</region>

<region>
hikey=g5
hivel=127
lokey=f#5
loop_end=264232
loop_mode=loop_continuous
loop_start=94982
loop_xfade=50775
lovel=0
lpc=MHZYQOHbncDE2IlAeYz4vwMxnT9BM4K/9YPOP2c5YL/ZhxA/ejkmP3DsVb8ehU4/L486PLcvsr32j1c/GqRnvrtzaj6fiwg/YXGqvigyjz7uNBs+I4AVP2zdJL+jO28/
lpc_rms=-23.55
pitch_keycenter=g5
sample=Violin1Solo_trill_half_FF_G5.opus
</region>

<region>
hikey=g6
hivel=127
lokey=f#6
loop_end=264183
loop_mode=loop_continuous
loop_start=94965
loop_xfade=50765
lovel=0
lpc=CYWAQBvL9b8wQV5AV0tqPnsZ8j9WzvY+rkMoQFieE7+pKRZADDK3P5aFXj8BjOY/GQudP/TqgT8c6Zo+KikWvw/ORT9Kjoq95gdOvt672T7bgvC+N1SzvRhfHD+WSOO+
lpc_rms=-26.57
pitch_keycenter=g6
sample=Violin1Solo_trill_half_FF_G6.opus
</region>
</group>